<?xml version="1.0" standalone="no"?>
<!DOCTYPE svg PUBLIC "-//W3C//DTD SVG 20010904//EN"
 "http://www.w3.org/TR/2001/REC-SVG-20010904/DTD/svg10.dtd">
<svg version="1.0" xmlns="http://www.w3.org/2000/svg"
 width="373.000000pt" height="112.000000pt" viewBox="0 0 373.000000 112.000000"
 preserveAspectRatio="xMidYMid meet">

<g transform="translate(0.000000,112.000000) scale(0.100000,-0.100000)"
fill="#000000" stroke="none">
<path d="M3116 919 c-109 -26 -210 -110 -263 -218 -25 -50 -28 -67 -28 -156 0
-92 3 -106 32 -167 141 -298 561 -292 701 10 23 49 27 70 27 152 0 86 -3 101
-32 162 -79 167 -262 258 -437 217z m234 -60 c77 -36 121 -77 159 -149 78
-146 51 -312 -68 -423 -197 -184 -511 -90 -577 173 -44 175 52 351 226 414 69
25 190 18 260 -15z"/>
<path d="M3134 851 c-142 -36 -233 -147 -242 -291 -5 -96 21 -170 82 -234 63
-64 116 -88 207 -94 102 -6 162 14 233 79 163 149 130 408 -65 507 -69 36
-155 49 -215 33z m156 -42 c61 -18 131 -78 162 -138 77 -148 -2 -343 -162
-396 -149 -50 -311 38 -356 192 -39 135 39 290 170 337 50 18 136 20 186 5z"/>
<path d="M3145 781 c-82 -21 -154 -90 -175 -166 -31 -112 12 -224 110 -282
122 -74 284 -25 345 104 73 153 -31 333 -200 348 -28 2 -63 1 -80 -4z m156
-54 c27 -14 57 -42 77 -71 27 -41 32 -57 32 -107 0 -97 -40 -161 -125 -200
-154 -71 -325 74 -285 240 31 132 181 201 301 138z"/>
<path d="M3135 701 c-134 -61 -141 -253 -12 -315 151 -71 307 79 238 229 -22
49 -48 73 -98 91 -51 18 -81 17 -128 -5z m136 -36 c94 -49 91 -203 -5 -249
-90 -42 -186 11 -201 110 -16 106 108 189 206 139z"/>
<path d="M170 540 c0 -304 2 -350 15 -350 13 0 15 46 15 350 0 304 -2 350 -15
350 -13 0 -15 -46 -15 -350z"/>
<path d="M240 540 c0 -304 2 -350 15 -350 13 0 15 46 15 350 0 304 -2 350 -15
350 -13 0 -15 -46 -15 -350z"/>
<path d="M310 540 c0 -304 2 -350 15 -350 13 0 15 46 15 350 0 304 -2 350 -15
350 -13 0 -15 -46 -15 -350z"/>
<path d="M380 540 c0 -304 2 -350 15 -350 13 0 15 22 15 140 l0 140 125 0 125
0 0 -140 c0 -118 2 -140 15 -140 13 0 15 46 15 350 0 304 -2 350 -15 350 -12
0 -15 -20 -15 -120 l0 -120 -125 0 -125 0 0 120 c0 100 -2 120 -15 120 -13 0
-15 -46 -15 -350z m280 55 c0 -13 -21 -15 -125 -15 -104 0 -125 2 -125 15 0
13 21 15 125 15 104 0 125 -2 125 -15z m0 -70 c0 -13 -21 -15 -125 -15 -104 0
-125 2 -125 15 0 13 21 15 125 15 104 0 125 -2 125 -15z"/>
<path d="M730 540 c0 -304 2 -350 15 -350 13 0 15 46 15 350 0 304 -2 350 -15
350 -13 0 -15 -46 -15 -350z"/>
<path d="M800 540 c0 -304 2 -350 15 -350 13 0 15 46 15 350 0 304 -2 350 -15
350 -13 0 -15 -46 -15 -350z"/>
<path d="M870 540 c0 -304 2 -350 15 -350 13 0 15 46 15 350 0 304 -2 350 -15
350 -13 0 -15 -46 -15 -350z"/>
<path d="M1010 540 c0 -304 2 -350 15 -350 13 0 15 46 15 350 0 304 -2 350
-15 350 -13 0 -15 -46 -15 -350z"/>
<path d="M1080 540 c0 -304 2 -350 15 -350 13 0 15 46 15 350 0 304 -2 350
-15 350 -13 0 -15 -46 -15 -350z"/>
<path d="M1150 540 c0 -304 2 -350 15 -350 13 0 15 46 15 350 0 304 -2 350
-15 350 -13 0 -15 -46 -15 -350z"/>
<path d="M1220 540 l0 -350 185 0 c178 0 185 1 185 20 0 19 -7 20 -170 20
-144 0 -170 2 -170 15 0 13 26 15 170 15 163 0 170 1 170 20 0 19 -7 20 -170
20 -144 0 -170 2 -170 15 0 13 26 15 170 15 163 0 170 1 170 20 0 19 -7 20
-170 20 l-170 0 0 40 0 40 160 0 c153 0 160 1 160 20 0 19 -7 20 -160 20 -136
0 -160 2 -160 15 0 13 24 15 160 15 153 0 160 1 160 20 0 19 -7 20 -160 20
-136 0 -160 2 -160 15 0 13 24 15 160 15 153 0 160 1 160 20 0 19 -7 20 -160
20 l-160 0 0 45 0 45 170 0 c144 0 170 2 170 15 0 13 -26 15 -170 15 -163 0
-170 1 -170 20 0 19 7 20 170 20 144 0 170 2 170 15 0 13 -26 15 -170 15 -163
0 -170 1 -170 20 0 19 7 20 170 20 144 0 170 2 170 15 0 13 -27 15 -185 15
l-185 0 0 -350z"/>
<path d="M1670 540 c0 -304 2 -350 15 -350 13 0 15 46 15 350 0 304 -2 350
-15 350 -13 0 -15 -46 -15 -350z"/>
<path d="M1740 540 c0 -304 2 -350 15 -350 13 0 15 46 15 350 0 304 -2 350
-15 350 -13 0 -15 -46 -15 -350z"/>
<path d="M1810 540 c0 -304 2 -350 15 -350 13 0 15 46 15 350 0 304 -2 350
-15 350 -13 0 -15 -46 -15 -350z"/>
<path d="M1880 540 l0 -350 145 0 c138 0 145 1 145 20 0 19 -7 20 -130 20
-109 0 -130 2 -130 15 0 13 21 15 130 15 123 0 130 1 130 20 0 19 -7 20 -130
20 -109 0 -130 2 -130 15 0 13 21 15 130 15 123 0 130 1 130 20 0 19 -7 20
-130 20 l-130 0 0 260 c0 224 -2 260 -15 260 -13 0 -15 -46 -15 -350z"/>
<path d="M2260 540 c0 -304 2 -350 15 -350 13 0 15 46 15 350 0 304 -2 350
-15 350 -13 0 -15 -46 -15 -350z"/>
<path d="M2330 540 c0 -304 2 -350 15 -350 13 0 15 46 15 350 0 304 -2 350
-15 350 -13 0 -15 -46 -15 -350z"/>
<path d="M2400 540 c0 -304 2 -350 15 -350 13 0 15 46 15 350 0 304 -2 350
-15 350 -13 0 -15 -46 -15 -350z"/>
<path d="M2470 540 l0 -350 145 0 c138 0 145 1 145 20 0 19 -7 20 -130 20
-109 0 -130 2 -130 15 0 13 21 15 130 15 123 0 130 1 130 20 0 19 -7 20 -130
20 -109 0 -130 2 -130 15 0 13 21 15 130 15 123 0 130 1 130 20 0 19 -7 20
-130 20 l-130 0 0 260 c0 224 -2 260 -15 260 -13 0 -15 -46 -15 -350z"/>
</g>
</svg>
