<?xml version="1.0" standalone="no"?>
<!DOCTYPE svg PUBLIC "-//W3C//DTD SVG 20010904//EN"
 "http://www.w3.org/TR/2001/REC-SVG-20010904/DTD/svg10.dtd">
<svg version="1.0" xmlns="http://www.w3.org/2000/svg"
 width="616.000000pt" height="102.000000pt" viewBox="0 0 616.000000 102.000000"
 preserveAspectRatio="xMidYMid meet">

<g transform="translate(0.000000,102.000000) scale(0.100000,-0.100000)"
fill="#000000" stroke="none">
<path d="M4116 900 c-111 -28 -210 -111 -263 -219 -25 -50 -28 -67 -28 -156 0
-92 3 -106 32 -167 55 -117 161 -197 285 -216 61 -9 152 -1 199 19 l29 11 0
179 c0 172 -1 179 -20 179 -18 0 -20 -7 -20 -55 l0 -56 -42 -19 c-105 -48
-207 1 -223 106 -17 114 121 196 218 130 29 -20 38 -22 47 -11 25 30 -91 83
-155 71 -78 -15 -136 -80 -143 -159 -5 -67 16 -117 66 -155 44 -33 138 -42
195 -19 35 15 37 15 37 -2 0 -37 -118 -63 -186 -41 -145 47 -197 219 -102 335
75 90 223 101 302 22 19 -19 26 -21 40 -11 15 11 13 15 -21 43 -105 87 -258
74 -346 -29 -97 -114 -68 -289 63 -368 52 -32 59 -33 135 -29 44 2 88 7 99 12
14 6 17 4 14 -11 -5 -28 -71 -47 -145 -41 -118 9 -215 89 -249 204 -51 176 84
353 269 353 69 0 117 -16 175 -60 33 -25 54 -35 63 -29 21 13 -24 55 -100 92
-57 28 -76 32 -141 31 -124 -1 -223 -62 -281 -176 -33 -64 -37 -176 -9 -250
25 -67 87 -136 151 -169 51 -26 173 -37 232 -21 33 9 37 8 37 -8 0 -23 -20
-30 -101 -37 -170 -14 -322 97 -365 267 -41 161 39 325 194 401 40 20 63 24
147 24 90 0 105 -3 151 -27 29 -15 68 -42 88 -61 30 -28 39 -32 52 -22 14 10
11 16 -27 49 -70 61 -156 97 -241 101 -40 3 -90 0 -112 -5z"/>
<path d="M275 870 c-74 -24 -127 -66 -154 -123 -54 -112 5 -249 125 -291 29
-10 96 -20 162 -23 105 -6 115 -8 129 -30 19 -29 7 -47 -44 -64 -50 -16 -189
-7 -232 15 -30 16 -35 16 -48 3 -13 -13 -8 -17 43 -37 74 -28 209 -32 266 -8
64 28 77 93 26 131 -22 16 -50 21 -146 27 -189 11 -252 54 -260 176 -5 72 11
110 61 148 55 42 113 58 212 59 104 0 178 -18 247 -62 38 -24 49 -27 58 -17 8
11 0 20 -37 44 -74 47 -137 64 -248 68 -80 3 -112 0 -160 -16z"/>
<path d="M2443 871 c-110 -41 -193 -127 -229 -239 -25 -79 -16 -200 20 -272
49 -98 134 -167 241 -195 104 -27 215 -14 215 26 0 17 -3 18 -22 8 -33 -18
-146 -15 -206 5 -29 10 -75 35 -102 57 -164 130 -171 365 -14 508 172 157 454
99 550 -113 27 -59 28 -67 32 -273 4 -177 7 -213 19 -213 12 0 14 34 11 223
-3 219 -3 223 -31 283 -36 77 -104 145 -182 181 -81 37 -223 44 -302 14z"/>
<path d="M780 855 c0 -13 36 -15 265 -15 229 0 265 2 265 15 0 13 -36 15 -265
15 -229 0 -265 -2 -265 -15z"/>
<path d="M1390 520 c0 -304 2 -350 15 -350 13 0 15 44 15 335 l0 335 233 0
c246 0 285 -5 348 -47 61 -40 93 -95 97 -168 5 -78 -10 -126 -57 -178 -59 -66
-95 -77 -253 -77 -131 0 -138 -1 -138 -20 0 -18 7 -20 54 -20 l54 0 28 -80
c21 -59 33 -80 46 -80 22 0 23 -3 -7 76 -29 77 -30 84 -11 84 8 0 26 -33 43
-77 22 -61 33 -79 50 -81 21 -3 20 0 -12 77 -31 72 -32 81 -16 81 13 0 26 -20
48 -77 23 -60 35 -79 51 -81 21 -3 21 -2 6 33 -52 126 -55 135 -36 135 12 0
26 -24 50 -85 26 -65 38 -85 53 -85 18 0 18 2 -2 53 -44 109 -53 141 -40 145
28 9 74 58 97 105 71 138 22 294 -114 364 l-64 33 -269 0 -269 0 0 -350z"/>
<path d="M3050 521 c0 -305 2 -351 15 -351 13 0 15 42 15 322 l0 322 185 -319
c142 -246 190 -321 206 -323 25 -4 40 -32 -214 408 -125 216 -170 286 -186
288 l-21 3 0 -350z"/>
<path d="M3157 823 c363 -629 378 -653 399 -653 20 0 18 7 -30 87 -28 48 -119
204 -202 348 -119 206 -155 261 -173 263 -22 4 -22 3 6 -45z"/>
<path d="M3414 520 c167 -291 205 -349 223 -350 20 0 10 20 -84 183 -58 100
-149 257 -202 349 -77 135 -100 168 -117 168 -19 0 6 -49 180 -350z"/>
<path d="M3301 854 c7 -8 99 -165 204 -347 150 -261 196 -333 213 -335 l22 -3
0 350 c0 304 -2 351 -15 351 -13 0 -15 -45 -17 -319 l-3 -319 -184 319 c-163
283 -187 319 -209 319 -21 0 -23 -2 -11 -16z"/>
<path d="M3560 701 c0 -147 3 -174 20 -212 l20 -44 0 213 c0 205 -1 212 -20
212 -19 0 -20 -7 -20 -169z"/>
<path d="M3640 631 c0 -187 3 -246 15 -272 13 -31 14 -9 15 239 0 235 -2 272
-15 272 -13 0 -15 -33 -15 -239z"/>
<path d="M4670 520 c0 -304 2 -350 15 -350 13 0 15 46 15 350 0 304 -2 350
-15 350 -13 0 -15 -46 -15 -350z"/>
<path d="M4740 520 c0 -304 2 -350 15 -350 13 0 15 46 15 350 0 304 -2 350
-15 350 -13 0 -15 -46 -15 -350z"/>
<path d="M4810 520 c0 -304 2 -350 15 -350 13 0 15 46 15 350 0 304 -2 350
-15 350 -13 0 -15 -46 -15 -350z"/>
<path d="M4880 520 l0 -350 185 0 c178 0 185 1 185 20 0 19 -7 20 -170 20
-144 0 -170 2 -170 15 0 13 26 15 170 15 163 0 170 1 170 20 0 19 -7 20 -170
20 -144 0 -170 2 -170 15 0 13 26 15 170 15 163 0 170 1 170 20 0 19 -7 20
-170 20 l-170 0 0 40 0 40 160 0 c153 0 160 1 160 20 0 19 -7 20 -160 20 -136
0 -160 2 -160 15 0 13 24 15 160 15 153 0 160 1 160 20 0 19 -7 20 -160 20
-136 0 -160 2 -160 15 0 13 24 15 160 15 153 0 160 1 160 20 0 19 -7 20 -160
20 l-160 0 0 45 0 45 170 0 c144 0 170 2 170 15 0 13 -26 15 -170 15 -163 0
-170 1 -170 20 0 19 7 20 170 20 144 0 170 2 170 15 0 13 -26 15 -170 15 -163
0 -170 1 -170 20 0 19 7 20 170 20 144 0 170 2 170 15 0 13 -27 15 -185 15
l-185 0 0 -350z"/>
<path d="M5330 520 c0 -304 2 -350 15 -350 13 0 15 44 15 335 l0 335 233 0
c246 0 285 -5 348 -47 61 -40 93 -95 97 -168 5 -78 -10 -126 -57 -178 -59 -66
-95 -77 -253 -77 -131 0 -138 -1 -138 -20 0 -18 7 -20 54 -20 l54 0 28 -80
c21 -59 33 -80 46 -80 22 0 23 -3 -7 76 -29 77 -30 84 -11 84 8 0 26 -33 43
-77 22 -61 33 -79 50 -81 21 -3 20 0 -12 77 -31 72 -32 81 -16 81 13 0 26 -20
48 -77 23 -60 35 -79 51 -81 21 -3 21 -2 6 33 -52 126 -55 135 -36 135 12 0
26 -24 50 -85 26 -65 38 -85 53 -85 18 0 18 2 -2 53 -44 109 -53 141 -40 145
28 9 74 58 97 105 71 138 22 294 -114 364 l-64 33 -269 0 -269 0 0 -350z"/>
<path d="M292 801 c-28 -10 -61 -26 -73 -37 -77 -69 -60 -184 33 -232 34 -18
67 -24 148 -28 123 -7 159 -16 190 -49 28 -29 32 -91 8 -127 -31 -47 -82 -63
-198 -63 -98 0 -110 2 -168 31 -50 25 -64 28 -73 18 -8 -10 -3 -18 23 -34 57
-35 137 -54 229 -54 73 0 93 4 143 28 36 17 65 40 77 60 26 43 25 105 -4 147
-35 54 -84 71 -216 79 -119 7 -153 17 -183 54 -22 26 -23 94 -2 124 53 76 250
90 375 26 35 -17 55 -22 66 -16 13 8 7 14 -30 37 -96 56 -243 71 -345 36z"/>
<path d="M2460 803 c-63 -23 -151 -113 -173 -177 -66 -194 59 -385 262 -403
75 -7 141 11 141 38 0 17 -3 18 -22 8 -32 -17 -146 -17 -188 0 -67 28 -115 68
-145 123 -24 44 -29 65 -29 123 -1 161 107 269 269 270 92 0 152 -23 205 -81
67 -73 70 -87 70 -324 0 -203 1 -210 20 -210 19 0 20 7 20 198 0 250 -8 281
-89 363 -44 44 -70 61 -111 73 -67 20 -171 19 -230 -1z"/>
<path d="M780 785 c0 -13 36 -15 265 -15 229 0 265 2 265 15 0 13 -36 15 -265
15 -229 0 -265 -2 -265 -15z"/>
<path d="M1460 485 c0 -273 2 -315 15 -315 13 0 15 40 15 301 l0 300 213 -3
c201 -3 214 -4 249 -26 58 -36 81 -82 76 -151 -5 -65 -25 -100 -79 -130 -32
-18 -54 -21 -168 -21 -124 0 -131 -1 -131 -20 0 -19 7 -20 128 -20 145 0 186
13 239 73 86 99 60 242 -56 304 -42 22 -53 23 -273 23 l-228 0 0 -315z"/>
<path d="M5400 485 c0 -273 2 -315 15 -315 13 0 15 40 15 301 l0 300 213 -3
c201 -3 214 -4 249 -26 58 -36 81 -82 76 -151 -5 -65 -25 -100 -79 -130 -32
-18 -54 -21 -168 -21 -124 0 -131 -1 -131 -20 0 -19 7 -20 128 -20 145 0 186
13 239 73 86 99 60 242 -56 304 -42 22 -53 23 -273 23 l-228 0 0 -315z"/>
<path d="M311 737 c-79 -30 -96 -108 -30 -142 17 -9 79 -19 151 -24 135 -9
169 -21 212 -71 78 -94 46 -219 -70 -276 -111 -54 -296 -42 -407 26 -34 21
-53 27 -64 21 -25 -13 56 -67 141 -93 139 -43 301 -25 394 42 101 73 109 234
16 322 -49 45 -99 60 -229 67 -66 4 -126 10 -132 14 -22 14 -15 55 13 73 38
26 185 23 247 -4 39 -17 48 -18 58 -6 34 41 -215 83 -300 51z"/>
<path d="M2475 731 c-82 -38 -134 -117 -135 -207 0 -142 93 -234 237 -234 76
0 113 13 113 39 0 19 -2 19 -35 5 -65 -27 -149 -14 -213 33 -46 34 -65 78 -66
148 -1 116 79 199 194 200 74 0 103 -9 145 -47 63 -54 65 -65 65 -293 0 -198
1 -205 20 -205 19 0 20 7 20 193 0 109 -5 209 -11 232 -15 53 -91 129 -144
144 -60 16 -144 13 -190 -8z"/>
<path d="M780 715 c0 -13 36 -15 265 -15 229 0 265 2 265 15 0 13 -36 15 -265
15 -229 0 -265 -2 -265 -15z"/>
<path d="M1530 450 c0 -242 2 -280 15 -280 13 0 15 36 15 265 l0 265 160 0
c170 0 208 -8 230 -49 19 -36 12 -90 -15 -116 -23 -24 -29 -25 -155 -25 -123
0 -130 -1 -130 -20 0 -19 7 -20 123 -20 140 0 178 13 209 71 23 44 23 86 -2
126 -35 57 -58 63 -265 63 l-185 0 0 -280z"/>
<path d="M5470 450 c0 -242 2 -280 15 -280 13 0 15 36 15 265 l0 265 160 0
c170 0 208 -8 230 -49 19 -36 12 -90 -15 -116 -23 -24 -29 -25 -155 -25 -123
0 -130 -1 -130 -20 0 -19 7 -20 123 -20 140 0 178 13 209 71 23 44 23 86 -2
126 -35 57 -58 63 -265 63 l-185 0 0 -280z"/>
<path d="M3114 707 c3 -10 6 -135 6 -278 0 -224 2 -259 15 -259 13 0 15 33 15
243 -1 224 -2 245 -21 277 -11 19 -18 27 -15 17z"/>
<path d="M920 425 c0 -248 1 -255 20 -255 19 0 20 7 20 255 0 248 -1 255 -20
255 -19 0 -20 -7 -20 -255z"/>
<path d="M990 425 c0 -248 1 -255 20 -255 19 0 20 7 20 255 0 248 -1 255 -20
255 -19 0 -20 -7 -20 -255z"/>
<path d="M1060 425 c0 -248 1 -255 20 -255 19 0 20 7 20 255 0 248 -1 255 -20
255 -19 0 -20 -7 -20 -255z"/>
<path d="M1130 425 c0 -248 1 -255 20 -255 19 0 20 7 20 255 0 248 -1 255 -20
255 -19 0 -20 -7 -20 -255z"/>
<path d="M2490 660 c-59 -36 -75 -66 -75 -142 0 -75 18 -109 75 -142 39 -23
141 -27 178 -7 27 14 32 48 5 35 -10 -5 -50 -9 -90 -9 -62 0 -75 3 -97 24 -58
54 -56 144 4 195 59 50 146 43 195 -15 25 -30 25 -31 25 -230 0 -194 0 -199
21 -199 20 0 20 4 17 204 -3 224 -5 230 -71 280 -41 30 -141 33 -187 6z"/>
<path d="M1600 415 c0 -211 2 -245 15 -245 13 0 15 32 15 230 l0 231 128 -3
c123 -3 127 -4 130 -25 3 -23 2 -23 -117 -23 -114 0 -121 -1 -121 -20 0 -19 7
-20 120 -20 107 0 122 2 140 20 24 24 25 48 4 78 -14 21 -21 22 -165 22 l-149
0 0 -245z"/>
<path d="M5540 415 c0 -211 2 -245 15 -245 13 0 15 32 15 230 l0 231 128 -3
c123 -3 127 -4 130 -25 3 -23 2 -23 -117 -23 -114 0 -121 -1 -121 -20 0 -19 7
-20 120 -20 107 0 122 2 140 20 24 24 25 48 4 78 -14 21 -21 22 -165 22 l-149
0 0 -245z"/>
<path d="M3188 380 c2 -176 5 -210 17 -210 22 0 22 348 0 390 -9 17 -17 30
-18 30 -1 0 -1 -94 1 -210z"/>
<path d="M4400 350 c0 -173 1 -180 20 -180 19 0 20 7 20 180 0 173 -1 180 -20
180 -19 0 -20 -7 -20 -180z"/>
<path d="M4470 350 c0 -173 1 -180 20 -180 19 0 20 7 20 180 0 173 -1 180 -20
180 -19 0 -20 -7 -20 -180z"/>
<path d="M4540 350 c0 -173 1 -180 20 -180 19 0 20 7 20 180 0 173 -1 180 -20
180 -19 0 -20 -7 -20 -180z"/>
</g>
</svg>
