<?xml version="1.0" standalone="no"?>
<!DOCTYPE svg PUBLIC "-//W3C//DTD SVG 20010904//EN"
 "http://www.w3.org/TR/2001/REC-SVG-20010904/DTD/svg10.dtd">
<svg version="1.0" xmlns="http://www.w3.org/2000/svg"
 width="660.000000pt" height="214.000000pt" viewBox="0 0 660.000000 214.000000"
 preserveAspectRatio="xMidYMid meet">

<g transform="translate(0.000000,214.000000) scale(0.100000,-0.100000)"
fill="#000000" stroke="none">
<path d="M4352 2120 c-44 -10 -106 -53 -166 -114 -85 -87 -114 -106 -163 -106
-42 0 -49 5 -138 90 -106 100 -155 130 -216 130 -63 0 -116 -31 -223 -130 -91
-86 -98 -90 -141 -90 -43 0 -50 4 -140 89 -186 175 -256 176 -438 2 -92 -88
-98 -91 -142 -91 -44 0 -50 3 -139 88 -184 176 -255 177 -440 3 -84 -79 -101
-91 -132 -91 -49 0 -67 11 -162 102 -165 158 -252 158 -416 -1 -90 -87 -111
-101 -153 -101 -37 0 -61 17 -154 107 -154 148 -250 150 -397 10 -97 -92 -120
-107 -161 -107 -46 0 -80 21 -177 110 -111 102 -147 114 -212 73 -23 -14 -23
-15 45 -65 37 -28 99 -80 137 -116 73 -68 151 -112 201 -112 49 0 126 43 188
105 95 95 124 115 171 115 49 0 83 -22 169 -110 32 -33 80 -71 107 -85 99 -50
166 -27 306 107 88 83 95 88 137 88 50 0 74 -16 171 -114 62 -62 141 -106 191
-106 51 0 127 44 208 121 93 87 110 98 158 99 42 0 64 -15 164 -110 114 -109
183 -132 270 -90 23 11 86 61 139 110 90 85 98 90 140 90 49 0 74 -17 169
-112 66 -67 140 -108 194 -108 58 0 116 35 218 131 89 84 97 89 138 89 50 0
79 -20 172 -114 64 -65 138 -106 192 -106 57 0 114 34 218 131 91 84 99 89
140 89 38 0 52 -7 102 -49 32 -27 74 -65 93 -86 42 -45 122 -85 169 -85 56 0
119 38 217 132 89 85 95 88 139 88 44 0 50 -4 137 -86 134 -127 212 -157 304
-115 22 10 84 60 138 110 92 87 99 91 142 91 43 0 49 -4 134 -85 138 -130 220
-161 310 -115 39 20 121 85 243 195 l66 59 -27 18 c-37 24 -83 23 -118 -4 -16
-12 -68 -59 -116 -105 -84 -79 -89 -83 -134 -83 -44 0 -49 3 -139 90 -181 174
-252 174 -440 -1 -91 -84 -99 -89 -140 -89 -42 0 -49 5 -141 91 -54 50 -116
100 -138 110 -90 41 -168 15 -270 -87 -93 -95 -122 -114 -174 -114 -41 0 -49
5 -125 78 -45 43 -97 88 -115 101 -45 32 -110 49 -150 41z"/>
<path d="M2121 1786 l-73 -73 50 -59 c74 -88 227 -233 312 -296 209 -154 439
-246 694 -278 136 -18 391 -8 521 20 278 59 524 186 721 372 77 74 194 207
194 222 0 4 -30 43 -67 86 l-66 80 -61 -35 c-125 -73 -241 -125 -292 -131 -80
-10 -142 11 -281 93 -83 50 -131 73 -138 67 -7 -5 -44 -36 -84 -69 -102 -86
-161 -115 -238 -115 -38 0 -78 7 -105 19 -44 19 -192 124 -217 154 -7 9 -17
17 -22 17 -5 0 -61 -32 -126 -70 -225 -135 -296 -132 -548 20 -46 27 -87 50
-92 50 -5 0 -41 -33 -82 -74z"/>
<path d="M5034 1815 c-4 -14 -5 -28 -3 -30 4 -3 402 -163 429 -172 21 -7 -123
87 -201 130 -53 30 -202 97 -215 97 -2 0 -6 -11 -10 -25z"/>
<path d="M1484 1806 c-33 -13 -80 -34 -105 -46 -49 -25 -229 -140 -229 -146 0
-2 17 3 38 11 20 9 116 48 212 87 96 38 178 72 183 75 10 6 -11 43 -26 43 -7
-1 -39 -11 -73 -24z"/>
<path d="M1744 1636 c-49 -24 -125 -69 -169 -101 -73 -53 -265 -212 -265 -220
0 -2 128 71 284 163 252 146 284 168 275 184 -14 26 -24 23 -125 -26z"/>
<path d="M4731 1646 c4 -4 506 -297 579 -338 57 -32 -56 72 -173 158 -118 89
-209 140 -289 165 -52 17 -129 26 -117 15z"/>
<path d="M1849 1392 c-120 -111 -284 -279 -344 -351 -15 -18 470 358 529 410
8 7 -29 69 -42 69 -4 0 -68 -57 -143 -128z"/>
<path d="M4581 1463 c0 -15 370 -315 605 -491 77 -58 46 -21 -85 103 -447 424
-425 405 -475 405 -37 0 -46 -3 -45 -17z"/>
<path d="M1921 1055 c-128 -163 -231 -301 -229 -306 3 -10 425 426 478 493 25
33 25 101 0 106 -10 2 -99 -102 -249 -293z"/>
<path d="M4432 1330 c-18 -8 -21 -14 -16 -37 12 -49 31 -78 90 -133 32 -30
108 -102 169 -160 60 -58 130 -123 154 -145 l45 -40 -29 40 c-58 79 -377 480
-383 482 -4 1 -17 -2 -30 -7z"/>
<path d="M2321 1150 c-23 -28 -66 -99 -98 -158 -31 -59 -71 -129 -88 -157 -55
-87 -187 -327 -182 -331 4 -4 273 370 439 609 l20 27 -26 30 -25 31 -40 -51z"/>
<path d="M4192 1147 c14 -18 125 -173 247 -345 123 -173 225 -311 228 -309 4
4 -153 280 -333 585 -50 84 -53 86 -127 96 l-39 5 24 -32z"/>
<path d="M4010 1012 c0 -32 37 -113 187 -406 103 -201 188 -364 190 -362 4 4
-269 680 -295 732 -11 21 -34 47 -51 57 l-31 18 0 -39z"/>
<path d="M2556 1024 c-9 -9 -29 -39 -43 -68 -34 -66 -284 -688 -279 -693 4 -5
383 735 388 757 4 22 -46 25 -66 4z"/>
<path d="M2798 982 c-10 -2 -20 -13 -23 -25 -3 -12 -52 -212 -110 -445 -58
-233 -105 -426 -104 -430 2 -24 279 797 279 826 -1 41 -22 79 -42 74z"/>
<path d="M3781 952 l-19 -37 141 -417 c78 -229 142 -416 144 -414 3 2 -175
738 -207 857 -14 52 -36 56 -59 11z"/>
<path d="M3031 884 c-12 -15 -21 -29 -21 -33 0 -3 -4 -44 -10 -91 -19 -172
-71 -743 -67 -746 3 -4 113 563 144 743 15 87 15 105 3 127 -17 33 -23 32 -49
0z"/>
<path d="M3529 878 c-11 -28 -8 -59 34 -282 84 -442 110 -576 114 -572 5 4
-23 313 -58 646 -17 169 -23 198 -41 217 -28 30 -33 29 -49 -9z"/>
<path d="M3280 863 c-20 -26 -21 -34 -15 -148 3 -66 12 -250 20 -409 8 -159
16 -291 19 -293 8 -8 16 98 31 442 8 187 15 347 15 356 0 8 -11 30 -24 48
l-24 32 -22 -28z"/>
</g>
</svg>
