<?xml version="1.0" standalone="no"?>
<!DOCTYPE svg PUBLIC "-//W3C//DTD SVG 20010904//EN"
 "http://www.w3.org/TR/2001/REC-SVG-20010904/DTD/svg10.dtd">
<svg version="1.0" xmlns="http://www.w3.org/2000/svg"
 width="660.000000pt" height="214.000000pt" viewBox="0 0 660.000000 214.000000"
 preserveAspectRatio="xMidYMid meet">

<g transform="translate(0.000000,214.000000) scale(0.100000,-0.100000)"
fill="#000000" stroke="none">
<path d="M3672 2023 c-11 -51 -99 -511 -130 -679 -17 -91 -17 -104 -3 -133 17
-35 27 -36 53 0 14 20 24 93 52 399 20 206 38 394 40 418 7 56 0 53 -12 -5z"/>
<path d="M2941 2030 c0 -14 10 -142 24 -285 13 -143 30 -318 37 -390 11 -116
15 -132 38 -159 l27 -29 16 40 c15 39 14 48 -33 299 -72 379 -108 552 -109
524z"/>
<path d="M3297 1928 c-30 -606 -32 -682 -12 -712 l19 -28 23 26 c21 24 23 37
23 124 0 53 -7 223 -15 377 -8 154 -15 292 -15 308 0 15 -4 27 -8 27 -5 0 -12
-55 -15 -122z"/>
<path d="M2588 1935 c-4 -4 146 -634 193 -808 l10 -38 29 18 c17 9 30 24 30
32 0 8 -48 164 -106 346 -58 181 -115 358 -125 393 -20 63 -22 66 -31 57z"/>
<path d="M3896 1552 l-127 -378 17 -38 c36 -74 43 -57 145 354 52 212 98 397
102 413 4 15 4 27 -1 27 -4 0 -65 -170 -136 -378z"/>
<path d="M4197 1468 c-96 -189 -178 -354 -182 -366 -4 -13 -4 -39 0 -58 5 -29
10 -35 28 -32 19 3 42 55 164 363 79 198 150 377 158 398 8 20 13 37 11 37 -3
0 -83 -154 -179 -342z"/>
<path d="M2406 1393 c80 -197 148 -361 153 -366 4 -4 19 1 32 11 l23 20 -17
53 c-21 67 -309 631 -325 637 -6 2 54 -158 134 -355z"/>
<path d="M1907 1650 c11 -19 62 -107 113 -195 238 -411 310 -525 338 -531 15
-3 32 -7 39 -9 44 -14 3 55 -233 388 -248 351 -299 420 -257 347z"/>
<path d="M4614 1523 c-54 -76 -163 -230 -242 -342 -134 -191 -143 -207 -140
-245 2 -32 7 -42 23 -43 16 -2 54 56 215 333 107 185 208 359 223 385 16 27
26 49 24 49 -3 0 -49 -62 -103 -137z"/>
<path d="M1640 1400 c0 -4 87 -118 193 -251 304 -384 298 -378 334 -385 36 -7
63 0 63 15 0 6 -91 106 -202 223 -312 330 -388 408 -388 398z"/>
<path d="M4686 1099 c-259 -273 -284 -303 -269 -315 44 -33 71 -12 201 150 76
94 272 345 355 454 5 6 7 12 4 12 -3 0 -134 -136 -291 -301z"/>
<path d="M1440 1092 c0 -9 427 -418 497 -476 25 -21 41 -27 70 -24 24 2 39 8
41 18 2 10 -102 98 -289 245 -311 245 -319 251 -319 237z"/>
<path d="M4838 837 c-141 -111 -255 -206 -254 -212 1 -5 14 -17 28 -25 24 -13
29 -12 68 15 50 35 272 253 359 353 35 39 61 72 60 72 -2 -1 -120 -92 -261
-203z"/>
<path d="M3105 1014 c-268 -41 -475 -118 -655 -245 -70 -49 -240 -210 -240
-227 0 -8 383 -222 398 -222 4 0 21 14 38 31 45 48 149 119 204 140 124 47
232 10 414 -145 l46 -38 33 26 c173 142 231 171 342 171 104 0 130 -14 288
-148 l45 -38 193 106 c107 58 198 110 202 114 11 11 -139 140 -247 212 -164
110 -376 197 -584 240 -94 20 -402 34 -477 23z"/>
<path d="M5165 692 c-416 -245 -399 -233 -409 -276 -16 -61 6 -63 84 -8 36 26
184 130 328 232 234 165 280 202 255 199 -5 0 -120 -67 -258 -147z"/>
<path d="M1300 776 c0 -7 221 -180 330 -258 182 -130 184 -131 229 -123 29 5
41 12 41 23 0 16 -64 54 -552 335 -26 15 -48 25 -48 23z"/>
<path d="M711 360 c-24 -11 -78 -53 -120 -93 -97 -94 -117 -107 -163 -107 -31
0 -49 10 -105 59 -38 32 -79 71 -93 86 -29 31 -90 65 -118 65 -25 0 -82 -20
-82 -29 0 -4 29 -29 65 -55 36 -27 98 -77 137 -113 75 -69 154 -113 203 -113
53 1 115 38 199 119 91 88 111 101 156 101 44 0 65 -13 155 -99 169 -161 241
-160 416 5 98 93 100 94 149 94 49 0 51 -1 145 -90 52 -50 114 -100 137 -110
91 -41 162 -17 277 93 95 92 117 107 159 107 47 0 66 -12 160 -102 164 -157
240 -157 404 0 97 92 113 102 167 102 37 0 48 -7 134 -89 183 -171 252 -173
419 -13 97 92 113 102 167 102 37 0 48 -7 134 -89 181 -169 255 -172 416 -18
95 92 117 107 159 107 46 0 78 -19 147 -90 164 -167 255 -170 419 -11 94 91
110 101 165 101 37 0 48 -7 128 -83 105 -99 145 -125 205 -133 64 -9 124 21
211 104 101 96 124 112 164 112 48 0 67 -12 163 -105 63 -60 99 -86 135 -98
110 -38 145 -20 382 190 l93 82 -40 12 c-67 20 -111 0 -210 -96 -96 -93 -115
-105 -162 -105 -42 0 -64 15 -159 107 -158 151 -239 150 -404 -8 -91 -87 -110
-99 -158 -99 -40 0 -63 16 -163 112 -155 147 -234 144 -405 -18 -133 -127
-163 -126 -301 3 -174 162 -245 163 -407 7 -99 -96 -96 -94 -154 -94 -63 0
-77 8 -168 96 -158 152 -239 151 -404 -7 -91 -87 -110 -99 -157 -99 -41 0 -62
14 -161 108 -158 149 -236 148 -397 -3 -96 -92 -117 -105 -160 -105 -43 0 -64
13 -160 105 -161 151 -242 152 -399 2 -96 -93 -117 -107 -161 -107 -44 0 -65
14 -160 105 -84 81 -120 103 -183 111 -64 9 -124 -22 -216 -109 -96 -93 -117
-107 -161 -107 -44 0 -65 14 -160 105 -41 40 -90 80 -108 89 -53 28 -120 30
-171 6z"/>
</g>
</svg>
