<svg fill="none" height="512" viewBox="0 0 24 24" width="512" xmlns="http://www.w3.org/2000/svg"><g fill="rgb(0,0,0)">
<path d="m21.6995 6.51877c.2391-.13807.3211-.44386.183-.68301s-.4439-.32108-.683-.18301l-4.899 2.82842c-.2391.13807-.3211.44387-.183.68302.1381.23914.4439.32108.683.18301z"/>
<path d="m21.8825 18.1642c-.1381.2391-.4439.3211-.683.183l-4.899-2.8284c-.2391-.1381-.3211-.4439-.183-.683.1381-.2392.4439-.3211.683-.1831l4.899 2.8285c.2391.138.3211.4438.183.683z"/>
<path d="m17.5 11.5c-.2761 0-.5.2239-.5.5s.2239.5.5.5h4.5c.2761 0 .5-.2239.5-.5s-.2239-.5-.5-.5z"/></g></svg>